<?xml version="1.0" encoding="UTF-8"?>
<svg version="1.1" xmlns="http://www.w3.org/2000/svg" width="512" height="512">
<path d="M0 0 C1.31307632 -0.01058945 1.31307632 -0.01058945 2.65267944 -0.02139282 C39.37779088 -0.25022111 39.37779088 -0.25022111 57.4609375 3.203125 C58.50459473 3.39648438 59.54825195 3.58984375 60.62353516 3.7890625 C111.23485047 13.41940528 158.84800443 36.33411152 198.4609375 69.203125 C199.46640625 70.03457031 200.471875 70.86601563 201.5078125 71.72265625 C215.36681674 83.2700816 228.7545052 95.4504464 240.4609375 109.203125 C241.26015625 110.11320312 242.059375 111.02328125 242.8828125 111.9609375 C285.40989519 160.74246397 317.34292287 227.78370711 317.6640625 293.28515625 C317.66976257 294.22002365 317.67546265 295.15489105 317.68133545 296.11808777 C317.69072114 298.08872369 317.69729359 300.05937484 317.70117188 302.0300293 C317.71078888 304.97018711 317.74183796 307.90961752 317.7734375 310.84960938 C317.86623143 327.40698233 316.22727767 343.66907618 312.2109375 359.765625 C311.89406982 361.05073975 311.89406982 361.05073975 311.57080078 362.36181641 C303.57163302 393.70959588 288.72048051 423.5236358 266.4609375 447.203125 C265.84911621 447.85732422 265.23729492 448.51152344 264.60693359 449.18554688 C233.46423754 482.15215295 193.34017726 503.19230963 148.4609375 510.203125 C147.42227539 510.37900146 146.38361328 510.55487793 145.31347656 510.73608398 C134.02867437 512.47488366 122.85699947 512.55970032 111.4609375 512.515625 C109.96160172 512.51239227 109.96160172 512.51239227 108.43197632 512.50909424 C93.92258323 512.45883696 79.71766702 512.14552666 65.4609375 509.203125 C64.43097656 508.99381348 63.40101563 508.78450195 62.33984375 508.56884766 C-7.13134319 494.11614048 -71.2055238 457.34977022 -117.5390625 403.203125 C-118.34085937 402.29046875 -119.14265625 401.3778125 -119.96875 400.4375 C-131.41262203 387.30473736 -141.41731305 373.02901929 -150.5390625 358.203125 C-150.92094727 357.59275391 -151.30283203 356.98238281 -151.69628906 356.35351562 C-179.54508185 311.67703856 -195.06170469 260.13264536 -194.8515625 207.515625 C-194.84940735 206.54346039 -194.8472522 205.57129578 -194.84503174 204.56967163 C-194.79524218 190.57750962 -194.47425598 176.93234085 -191.5390625 163.203125 C-191.34038574 162.22504883 -191.14170898 161.24697266 -190.93701172 160.23925781 C-180.29154368 108.74230458 -151.55134317 63.07527848 -107.62060547 33.56396484 C-75.95645145 12.86305064 -38.02262832 0.20587915 0 0 Z M-129.5390625 67.203125 C-129.02187963 75.96128736 -127.72432628 84.37369507 -125.9140625 92.953125 C-125.64827393 94.21664795 -125.38248535 95.4801709 -125.10864258 96.78198242 C-115.19443253 142.69541897 -96.56427359 187.11276899 -64 221.58984375 C-61.87470216 223.84670765 -59.85181614 226.14880904 -57.8515625 228.515625 C-54.38453554 232.48606103 -50.60080177 235.85170579 -46.5390625 239.203125 C-46.03938965 239.62577637 -45.5397168 240.04842773 -45.02490234 240.48388672 C-30.25063355 252.95713804 -14.12788386 263.1754495 3.4609375 271.203125 C4.16057617 271.52732422 4.86021484 271.85152344 5.58105469 272.18554688 C21.83044438 279.6383291 38.86686374 284.48792358 56.03125 289.35546875 C96.67761301 300.89091413 135.20728254 315.06952538 167.4609375 343.203125 C168.04069336 343.7084375 168.62044922 344.21375 169.21777344 344.734375 C190.71744665 363.65901572 207.59724544 386.70894494 224.4609375 409.703125 C229.59588907 416.7015551 234.78235749 423.65874855 240.0234375 430.578125 C240.69052734 431.46435547 241.35761719 432.35058594 242.04492188 433.26367188 C245.29517559 437.5389293 248.53125946 441.53743684 252.4609375 445.203125 C250.5358685 424.0560984 245.82649614 403.43861154 239.4609375 383.203125 C239.20618652 382.38956543 238.95143555 381.57600586 238.68896484 380.73779297 C224.82849879 337.22722649 199.5843628 296.59623452 163.4609375 268.203125 C162.45160156 267.3884375 161.44226563 266.57375 160.40234375 265.734375 C152.51575788 259.43534071 144.23988645 254.16672137 135.4609375 249.203125 C134.86587402 248.86039551 134.27081055 248.51766602 133.65771484 248.16455078 C115.97322345 238.02375953 96.97098802 231.92199184 77.53213501 226.04454041 C17.60843194 207.91950405 -38.1432045 186.68402089 -77.5390625 135.203125 C-78.61161588 133.84503728 -79.68599567 132.48839093 -80.76171875 131.1328125 C-87.07844574 123.13924039 -93.16738877 115.03105625 -98.99707031 106.67602539 C-106.98172655 95.23936605 -115.26791166 84.01017328 -123.8515625 73.015625 C-124.31377197 72.42112549 -124.77598145 71.82662598 -125.25219727 71.21411133 C-126.32277547 69.85697974 -127.42716063 68.52661208 -128.5390625 67.203125 C-128.8690625 67.203125 -129.1990625 67.203125 -129.5390625 67.203125 Z " fill="#B40000" transform="translate(194.5390625,-0.203125)"/>
</svg>
